<?xml version="1.0" standalone="no"?>
<!DOCTYPE svg PUBLIC "-//W3C//DTD SVG 20010904//EN"
 "http://www.w3.org/TR/2001/REC-SVG-20010904/DTD/svg10.dtd">
<svg version="1.0" xmlns="http://www.w3.org/2000/svg"
 width="750.000000pt" height="750.000000pt" viewBox="0 0 750.000000 750.000000"
 preserveAspectRatio="xMidYMid meet">

<g transform="translate(0.000000,750.000000) scale(0.100000,-0.100000)"
fill="#000000" stroke="none">
<path d="M3459 7489 c-1305 -101 -2477 -890 -3063 -2064 -924 -1852 -171
-4105 1679 -5029 1852 -924 4105 -171 5029 1679 824 1652 326 3650 -1177 4727
-707 507 -1597 754 -2468 687z m1401 -849 c223 -61 429 -117 458 -126 l52 -15
380 -569 380 -570 0 -363 0 -363 328 -271 327 -271 138 -349 c75 -192 137
-354 137 -359 0 -5 -368 41 -852 108 l-853 117 -234 -121 -235 -120 -104 22
c-57 12 -106 19 -110 16 -3 -4 -156 -273 -338 -599 l-333 -592 -79 -37 -79
-36 -376 -614 c-207 -337 -380 -618 -385 -625 -9 -14 -1108 268 -1127 289 -7
7 -146 202 -311 433 -164 231 -376 529 -470 661 -115 163 -169 246 -164 255 6
8 -2 26 -21 50 -26 33 -53 47 -240 120 -116 46 -214 89 -217 97 -5 15 24 1118
34 1237 l5 70 564 169 564 169 524 601 524 601 242 60 243 60 216 306 216 305
385 186 c212 101 391 183 396 182 6 -2 192 -53 415 -114z"/>
</g>
</svg>
